<svg width="36" height="40" viewBox="0 0 36 40" fill="none" xmlns="http://www.w3.org/2000/svg">
<path d="M3.7593 24.7917C3.50375 24.9195 3.23989 24.9278 2.96772 24.8166C2.69555 24.7055 2.51219 24.5215 2.41764 24.2646L0.980136 20.4313C0.820414 19.9841 0.748859 19.5452 0.76547 19.1145C0.782081 18.6839 0.981414 18.3881 1.36347 18.2271C2.16208 17.9077 2.90511 18.0195 3.59255 18.5625C4.28 19.1056 4.79878 19.8084 5.14889 20.6709L5.91555 22.7313C6.01139 22.9868 6.01969 23.2188 5.94047 23.427C5.86125 23.6353 5.70919 23.8027 5.4843 23.9292L3.7593 24.7917ZM15.7385 39.1667C15.1954 39.1667 14.6607 39.0549 14.1342 38.8313C13.6078 38.6077 13.1682 38.2882 12.8156 37.873L5.05305 28.9125C4.70166 28.4973 4.54194 28.0341 4.57389 27.523C4.60583 27.0118 4.82944 26.5806 5.24472 26.2292C5.66 25.8778 6.12319 25.7264 6.6343 25.775C7.14541 25.8235 7.57666 26.0388 7.92805 26.4209L12.2406 31.3563C12.2406 31.1007 12.2725 30.8535 12.3364 30.6145C12.4003 30.3756 12.4961 30.1277 12.6239 29.8709L10.4197 23.5459C10.26 23.0348 10.2919 22.5396 10.5156 22.0605C10.7392 21.5813 11.1065 21.2618 11.6176 21.1021C12.1287 20.9424 12.6239 20.9743 13.1031 21.198C13.5822 21.4216 13.9017 21.7889 14.0614 22.3L15.9301 27.6667H17.0322V21.9167C17.0322 21.3737 17.2162 20.9188 17.5842 20.552C17.9522 20.1853 18.4071 20.0013 18.9489 20C19.4919 20 19.9475 20.184 20.3155 20.552C20.6835 20.92 20.8668 21.3749 20.8656 21.9167V27.6667H22.0156L23.0218 23.4021C23.1496 22.8591 23.4294 22.4515 23.8613 22.1793C24.2932 21.9071 24.78 21.8356 25.3218 21.9646C25.8649 22.0924 26.2725 22.3722 26.5446 22.8041C26.8168 23.236 26.8884 23.7228 26.7593 24.2646L25.9926 27.6667C26.1524 27.6987 26.3204 27.7306 26.4967 27.7625C26.6731 27.7945 26.8404 27.8424 26.9989 27.9063L27.7176 26.0375C27.9093 25.5264 28.2447 25.1591 28.7239 24.9355C29.2031 24.7118 29.6982 24.6959 30.2093 24.8875C30.6885 25.0792 31.0316 25.4146 31.2386 25.8938C31.4456 26.373 31.4539 26.8681 31.2635 27.3792L29.4906 32.075V35.3334C29.4906 36.3875 29.1149 37.2903 28.3636 38.0416C27.6122 38.793 26.7101 39.168 25.6572 39.1667H15.7385ZM9.89264 9.50629C9.63708 9.53823 9.40516 9.46668 9.19689 9.29162C8.98861 9.11657 8.86914 8.90062 8.83847 8.64379L8.40722 4.85837C8.34333 4.31532 8.47941 3.84446 8.81547 3.44579C9.15152 3.04712 9.59044 2.81521 10.1322 2.75004C10.6753 2.68615 11.1468 2.82224 11.5467 3.15829C11.9467 3.49435 12.1779 3.93326 12.2406 4.47504L12.6239 8.26046C12.6558 8.51601 12.5843 8.74793 12.4092 8.95621C12.2342 9.16448 12.0182 9.28396 11.7614 9.31462L9.89264 9.50629ZM10.9468 19.2813C10.6593 19.3452 10.3961 19.2973 10.1571 19.1375C9.91819 18.9778 9.78211 18.7542 9.74889 18.4667L9.17389 13.4834C9.11 12.9403 9.24608 12.4695 9.58214 12.0708C9.91819 11.6721 10.3571 11.4402 10.8989 11.375C11.4419 11.3112 11.9134 11.4472 12.3134 11.7833C12.7133 12.1193 12.9446 12.5583 13.0072 13.1L13.5343 17.748C13.5662 18.0035 13.5183 18.2271 13.3906 18.4188C13.2628 18.6105 13.0711 18.7382 12.8156 18.8021L10.9468 19.2813ZM17.9906 18.0834C17.735 18.0834 17.5114 17.9875 17.3197 17.7959C17.1281 17.6042 17.0322 17.3806 17.0322 17.125V12.3334C17.0322 11.7903 17.2162 11.3354 17.5842 10.9687C17.9522 10.602 18.4071 10.418 18.9489 10.4167C19.4919 10.4167 19.9475 10.6007 20.3155 10.9687C20.6835 11.3367 20.8668 11.7916 20.8656 12.3334V17.125C20.8656 17.3806 20.7697 17.6042 20.5781 17.7959C20.3864 17.9875 20.1628 18.0834 19.9072 18.0834H17.9906ZM17.9906 8.50004C17.735 8.50004 17.5114 8.40421 17.3197 8.21254C17.1281 8.02087 17.0322 7.79726 17.0322 7.54171V2.75004C17.0322 2.20699 17.2162 1.7521 17.5842 1.38537C17.9522 1.01865 18.4071 0.834652 18.9489 0.833374C19.4919 0.833374 19.9475 1.01737 20.3155 1.38537C20.6835 1.75337 20.8668 2.20826 20.8656 2.75004V7.54171C20.8656 7.79726 20.7697 8.02087 20.5781 8.21254C20.3864 8.40421 20.1628 8.50004 19.9072 8.50004H17.9906ZM26.376 20.2875L24.4593 19.8084C24.2037 19.7445 24.0121 19.6167 23.8843 19.425C23.7565 19.2334 23.7086 19.0098 23.7406 18.7542L24.2676 14.0584C24.3315 13.5153 24.5634 13.0764 24.9634 12.7416C25.3633 12.4068 25.8342 12.2708 26.376 12.3334C26.919 12.3973 27.3586 12.6292 27.6946 13.0291C28.0307 13.4291 28.1661 13.8999 28.101 14.4417L27.5739 19.473C27.5419 19.7605 27.4065 19.9841 27.1676 20.1438C26.9286 20.3035 26.6647 20.3514 26.376 20.2875ZM27.4781 10.6563L25.5614 10.4646C25.3058 10.4327 25.0905 10.3126 24.9155 10.1043C24.7404 9.89601 24.6682 9.66473 24.6989 9.41046L25.0822 5.62504C25.1461 5.08198 25.378 4.64307 25.778 4.30829C26.1779 3.97351 26.6488 3.83743 27.1906 3.90004C27.7336 3.96393 28.1732 4.19585 28.5092 4.59579C28.8453 4.99574 28.9807 5.4666 28.9156 6.00837L28.5322 9.79379C28.5003 10.0493 28.3808 10.2653 28.1738 10.4416C27.9668 10.618 27.7349 10.6895 27.4781 10.6563ZM31.3114 23.3542L29.4426 22.7792C29.1871 22.7153 29.0031 22.5716 28.8906 22.348C28.7782 22.1243 28.7546 21.8848 28.8197 21.6292L29.5385 18.9459C29.6982 18.4348 30.0017 18.0438 30.4489 17.7729C30.8961 17.502 31.3753 17.4458 31.8864 17.6042C32.3975 17.7639 32.7808 18.0591 33.0364 18.4897C33.2919 18.9203 33.3558 19.3918 33.2281 19.9042L32.5093 22.6834C32.4454 22.9389 32.2934 23.1306 32.0531 23.2584C31.8129 23.3862 31.5657 23.4181 31.3114 23.3542ZM33.3239 16.1188L31.4551 15.6396C31.1996 15.5757 31.0079 15.4237 30.8801 15.1835C30.7524 14.9432 30.7204 14.696 30.7843 14.4417L31.4072 12.2375C31.6308 11.4709 31.9024 10.7521 32.2218 10.0813C32.5412 9.41046 33.0364 9.1549 33.7072 9.31462C34.5058 9.50629 34.985 10.0334 35.1447 10.8959C35.3044 11.7584 35.2565 12.6528 35.001 13.5792L34.4739 15.448C34.41 15.7035 34.2662 15.8952 34.0426 16.023C33.819 16.1507 33.5794 16.1827 33.3239 16.1188Z" fill="#0A828A"/>
</svg>
