<svg width="34" height="38" viewBox="0 0 34 38" fill="none" xmlns="http://www.w3.org/2000/svg">
<path d="M30.555 3.00061C27.3755 0.038698 23.7764 0.0427382 21.0862 0.70736C18.4061 1.36936 15.594 1.36936 12.9138 0.70736C10.2236 0.0427382 6.62454 0.038698 3.4449 3.00061C-2.57958 8.61273 2.26827 18.6378 3.72736 20.3646C5.18646 22.0914 5.23343 24.3938 6.26893 29.0946C7.30443 33.7954 8.62219 38.2563 11.2579 37.5848C13.8936 36.9133 14.5997 33.6516 15.2586 29.2865C15.304 28.9863 15.3511 28.7047 15.3999 28.4401C15.7349 26.6252 18.265 26.6252 18.6 28.4401C18.6487 28.7045 18.6961 28.9863 18.7415 29.2865C19.4004 33.6516 20.1064 36.9133 22.7421 37.5848C25.3779 38.2563 26.6956 33.7954 27.7311 29.0946C28.7666 24.3938 28.8136 22.0914 30.2727 20.3646C31.7318 18.6378 36.5796 8.61273 30.555 3.00061ZM12.1539 5.18093C12.0809 5.73243 11.584 6.11989 11.0432 6.04797C10.8496 6.02353 6.55298 5.54011 5.34582 10.3205C5.23066 10.7763 4.82808 11.0791 4.38664 11.0791C4.30478 11.0791 4.22172 11.0688 4.13887 11.047C3.60883 10.908 3.2897 10.3573 3.42607 9.81713C4.74879 4.57894 9.15718 3.75169 11.3035 4.04522C11.846 4.11956 12.2266 4.62802 12.1539 5.18093Z" fill="#0A828A"/>
</svg>
