<svg width="40" height="38" viewBox="0 0 40 38" fill="none" xmlns="http://www.w3.org/2000/svg">
<path d="M30.8684 21.6247L29.5762 23.5722L27.976 15.5698L26.7519 19.0101C26.94 19.5481 27.2637 20.5624 27.5147 21.7852L27.7506 21.1279L28.7715 26.2306L31.411 22.9352H39.6584V21.6247H30.8684Z" fill="#0A828A"/>
<path d="M14.4821 7.46434C14.9657 7.22778 15.4709 7.03644 15.9919 6.89097L15.5011 0.506533C15.4749 0.163819 15.1053 -0.0786357 14.7809 0.0275204L14.1151 0.249662C13.7154 0.382684 13.4474 0.754886 13.4474 1.17558C13.4474 1.22931 13.452 1.28304 13.4605 1.33678L14.4821 7.46434Z" fill="#0A828A"/>
<path d="M15.68 13.1058C17.0495 13.1058 18.3935 12.6347 19.4636 11.7788C20.4917 10.9565 21.7217 10.4073 23.0198 10.1911L23.7072 10.0764C22.3337 8.69967 20.438 7.86353 18.3686 7.86353C15.9106 7.86353 13.6021 9.06532 12.1932 11.0797C12.0399 11.2992 11.8964 11.5239 11.7601 11.7513C12.8361 12.6261 14.1709 13.1058 15.5725 13.1058H15.68Z" fill="#0A828A"/>
<path d="M0.765556 8.32605L3.46336 9.67462C4.39387 10.1399 5.07733 10.9564 5.39055 11.9255C5.83484 11.8443 6.28895 11.7951 6.75551 11.7951H6.84135C7.35444 11.7951 7.86949 11.8462 8.37144 11.9465L10.0005 12.2722C10.3052 11.611 10.6715 10.9747 11.0928 10.3679L9.73705 9.01213C9.18465 8.45972 8.84718 7.72646 8.78689 6.94667L8.29477 0.547819C8.26725 0.192 7.89898 -0.070769 7.5602 0.0170391L6.18476 0.360408C5.8309 0.450182 5.58386 0.766684 5.58386 1.13233C5.58386 1.19786 5.59172 1.26208 5.60745 1.32433L6.67425 5.59089C6.86691 6.36412 6.50454 7.15243 5.79159 7.5089C5.2169 7.79657 4.53999 7.73563 4.02494 7.34902L2.31661 6.06793C1.94048 5.78747 1.35466 5.88642 1.09385 6.27763L0.470023 7.21272C0.386146 7.33984 0.341587 7.48663 0.341587 7.63931C0.341587 7.93156 0.504098 8.19499 0.765556 8.32605Z" fill="#0A828A"/>
<path d="M5.14884 21.6243C7.23002 21.6243 8.85971 19.9664 8.85971 17.8492V17.494C8.85971 16.1251 9.07989 14.7838 9.50844 13.5106L8.114 13.2314C7.69593 13.1482 7.26737 13.1056 6.84078 13.1056H6.75494C3.30552 13.1056 0.483211 15.9023 0.346256 19.3924L0.761051 19.8072C1.93336 20.9788 3.49162 21.6243 5.14884 21.6243Z" fill="#0A828A"/>
<path d="M19.7104 6.66145L21.2484 2.04759C21.2903 1.92309 21.3113 1.79203 21.3113 1.66098C21.3113 1.25077 21.1075 0.870048 20.7661 0.642665L19.924 0.0810862C19.6469 -0.103704 19.2321 0.0751886 19.1777 0.404797L18.1508 6.56643C18.2242 6.56447 18.2957 6.55267 18.3691 6.55267C18.8251 6.55267 19.2714 6.59461 19.7104 6.66145Z" fill="#0A828A"/>
<path d="M25.7401 5.1943C25.8424 5.07176 25.8981 4.91711 25.8981 4.75788C25.8981 4.49773 25.7539 4.26445 25.5213 4.14781L25.2998 4.03706C24.8509 3.8123 24.2671 3.97612 24.001 4.40271L22.1341 7.3895C22.5541 7.58674 22.9545 7.82002 23.3359 8.07886L25.7401 5.1943Z" fill="#0A828A"/>
<path d="M15.4133 24.2454C16.499 24.2454 17.3791 23.3653 17.3791 22.2796C17.3791 21.1939 16.499 20.3137 15.4133 20.3137C14.3275 20.3137 13.4474 21.1939 13.4474 22.2796C13.4474 23.3653 14.3275 24.2454 15.4133 24.2454Z" fill="#0A828A"/>
<path d="M21.9837 19.3202L21.1803 22.9348H18.6227C18.318 24.4282 16.995 25.5559 15.4125 25.5559C13.6059 25.5559 12.1361 24.0861 12.1361 22.2795C12.1361 20.4729 13.6059 19.0031 15.4125 19.0031C16.9944 19.0031 18.318 20.1308 18.6227 21.6242H20.1292L21.947 13.4437L24.6481 24.9223L26.7515 19.0096C26.6618 18.7521 26.6015 18.5981 26.5989 18.5916L26.5622 18.4625L25.7909 14.0924C25.6061 13.0466 25.2077 12.0879 24.6533 11.2478L23.2346 11.4844C22.1567 11.6639 21.1358 12.12 20.2819 12.8028C18.9799 13.8427 17.3456 14.4161 15.6792 14.4161H15.5711C13.9578 14.4161 12.4192 13.8912 11.1486 12.9338C10.5097 14.3604 10.1702 15.9049 10.1702 17.494V17.8491C10.1702 20.6538 7.91737 22.9348 5.14879 22.9348C3.40901 22.9348 1.75966 22.3477 0.426159 21.2671C0.761664 24.3024 2.07682 27.1679 4.21501 29.4706C7.06419 32.5393 10.625 34.9855 14.5128 36.5457L17.7951 37.8609C18.3659 38.0889 19.0585 38.0476 19.5395 37.6558L19.8645 37.3904C23.7805 34.1854 26.6185 29.7242 27.8629 24.8207C27.8557 23.7709 27.707 22.7192 27.515 21.7841L24.5255 30.122L21.9837 19.3202Z" fill="#0A828A"/>
</svg>
