<svg width="41" height="40" viewBox="0 0 41 40" fill="none" xmlns="http://www.w3.org/2000/svg">
<path d="M15.8167 23.2835V11.2835L25.1417 5.90014C30.3083 2.91681 39.5583 10.2751 35.675 17.0085" stroke="#0A828A" stroke-linejoin="round"/>
<path d="M15.8167 17.4502L26.2083 11.4502L35.5333 16.8335C40.7 19.8169 38.95 31.5085 31.175 31.5085" stroke="#0A828A" stroke-linejoin="round"/>
<path d="M20.8667 14.5332L31.2583 20.5332V31.3082C31.2583 37.2749 20.2583 41.6082 16.375 34.8749" stroke="#0A828A" stroke-linejoin="round"/>
<path d="M25.9167 17.6665V29.4498L16.5917 34.8332C11.425 37.8165 2.17499 30.4582 6.05833 23.7248" stroke="#0A828A" stroke-linejoin="round"/>
<path d="M25.9167 23.2834L15.525 29.2834L6.2 23.9001C1.025 20.9084 2.775 9.2251 10.55 9.2251" stroke="#0A828A" stroke-linejoin="round"/>
<path d="M20.8667 26.1998L10.475 20.1998V9.42481C10.475 3.45815 21.475 -0.875187 25.3583 5.85815" stroke="#0A828A" stroke-linejoin="round"/>
</svg>
