<svg width="25" height="29" viewBox="0 0 25 29" fill="none" xmlns="http://www.w3.org/2000/svg">
<path d="M1.07143 24.5007C1.07143 22.7325 1.67347 21.0368 2.74511 19.7866C3.81675 18.5364 5.2702 17.834 6.78572 17.834H18.2143C19.7298 17.834 21.1833 18.5364 22.2549 19.7866C23.3265 21.0368 23.9286 22.7325 23.9286 24.5007C23.9286 25.3847 23.6276 26.2326 23.0917 26.8577C22.5559 27.4828 21.8292 27.834 21.0714 27.834H3.92858C3.17082 27.834 2.44409 27.4828 1.90827 26.8577C1.37245 26.2326 1.07143 25.3847 1.07143 24.5007Z" stroke="#0A828A" stroke-width="2" stroke-linejoin="round"/>
<path d="M12.5 11.167C14.8669 11.167 16.7857 8.92842 16.7857 6.16699C16.7857 3.40557 14.8669 1.16699 12.5 1.16699C10.1331 1.16699 8.21429 3.40557 8.21429 6.16699C8.21429 8.92842 10.1331 11.167 12.5 11.167Z" stroke="#0A828A" stroke-width="2"/>
</svg>
