<svg width="35" height="41" viewBox="0 0 35 41" fill="none" xmlns="http://www.w3.org/2000/svg">
<g clip-path="url(#clip0_537_705)">
<path d="M17.5 20.5C20.1522 20.5 22.6957 19.4464 24.5711 17.5711C26.4464 15.6957 27.5 13.1522 27.5 10.5C27.5 7.84784 26.4464 5.3043 24.5711 3.42893C22.6957 1.55357 20.1522 0.5 17.5 0.5C14.8478 0.5 12.3043 1.55357 10.4289 3.42893C8.55357 5.3043 7.5 7.84784 7.5 10.5C7.5 13.1522 8.55357 15.6957 10.4289 17.5711C12.3043 19.4464 14.8478 20.5 17.5 20.5ZM10 24.8125C4.21875 26.5078 0 31.8516 0 38.1797C0 39.4609 1.03906 40.5 2.32031 40.5H32.6797C33.9609 40.5 35 39.4609 35 38.1797C35 31.8516 30.7812 26.5078 25 24.8125V28.7812C27.1562 29.3359 28.75 31.2969 28.75 33.625V36.75C28.75 37.4375 28.1875 38 27.5 38H26.25C25.5625 38 25 37.4375 25 36.75C25 36.0625 25.5625 35.5 26.25 35.5V33.625C26.25 32.2422 25.1328 31.125 23.75 31.125C22.3672 31.125 21.25 32.2422 21.25 33.625V35.5C21.9375 35.5 22.5 36.0625 22.5 36.75C22.5 37.4375 21.9375 38 21.25 38H20C19.3125 38 18.75 37.4375 18.75 36.75V33.625C18.75 31.2969 20.3438 29.3359 22.5 28.7812V24.3203C22.0312 24.2734 21.5547 24.25 21.0703 24.25H13.9297C13.4453 24.25 12.9688 24.2734 12.5 24.3203V29.4297C14.3047 29.9688 15.625 31.6406 15.625 33.625C15.625 36.0391 13.6641 38 11.25 38C8.83594 38 6.875 36.0391 6.875 33.625C6.875 31.6406 8.19531 29.9688 10 29.4297V24.8125ZM11.25 35.5C11.7473 35.5 12.2242 35.3025 12.5758 34.9508C12.9275 34.5992 13.125 34.1223 13.125 33.625C13.125 33.1277 12.9275 32.6508 12.5758 32.2992C12.2242 31.9475 11.7473 31.75 11.25 31.75C10.7527 31.75 10.2758 31.9475 9.92417 32.2992C9.57254 32.6508 9.375 33.1277 9.375 33.625C9.375 34.1223 9.57254 34.5992 9.92417 34.9508C10.2758 35.3025 10.7527 35.5 11.25 35.5Z" fill="#0A828A"/>
</g>
<defs>
<clipPath id="clip0_537_705">
<rect width="35" height="40" fill="white" transform="translate(0 0.5)"/>
</clipPath>
</defs>
</svg>
