<svg width="43" height="46" viewBox="0 0 43 46" fill="none" xmlns="http://www.w3.org/2000/svg">
<g filter="url(#filter0_d_536_703)">
<path d="M21.5 18.833C23.7101 18.833 25.8298 19.711 27.3926 21.2738C28.9554 22.8366 29.8333 24.9562 29.8333 27.1663V37.1663H26.5V27.1663C26.5001 25.891 26.0128 24.6638 25.1379 23.7359C24.2629 22.808 23.0665 22.2495 21.7933 22.1747L21.5 22.1663C20.2246 22.1663 18.9975 22.6535 18.0696 23.5285C17.1417 24.4034 16.5832 25.5999 16.5083 26.873L16.5 27.1663V37.1663H13.1667V27.1663C13.1667 24.9562 14.0446 22.8366 15.6074 21.2738C17.1702 19.711 19.2899 18.833 21.5 18.833ZM10.6667 23.833C11.1317 23.833 11.5833 23.888 12.0167 23.9897C11.7317 24.838 11.563 25.721 11.515 26.6147L11.5 27.1663V27.3097C11.3084 27.2411 11.1092 27.1964 10.9067 27.1763L10.6667 27.1663C10.0455 27.1663 9.44649 27.3976 8.98649 27.8151C8.52648 28.2326 8.23838 28.8064 8.17833 29.4247L8.16667 29.6663V37.1663H4.83333V29.6663C4.83333 28.1192 5.44791 26.6355 6.54188 25.5416C7.63584 24.4476 9.11957 23.833 10.6667 23.833ZM32.3333 23.833C33.8804 23.833 35.3642 24.4476 36.4581 25.5416C37.5521 26.6355 38.1667 28.1192 38.1667 29.6663V37.1663H34.8333V29.6663C34.8333 29.0451 34.6021 28.4462 34.1846 27.9862C33.7671 27.5262 33.1933 27.2381 32.575 27.178L32.3333 27.1663C32.0417 27.1663 31.7617 27.2163 31.5 27.308V27.1663C31.5 26.0563 31.32 24.9897 30.9867 23.993C31.4167 23.888 31.87 23.833 32.3333 23.833ZM10.6667 13.833C11.7717 13.833 12.8315 14.272 13.6129 15.0534C14.3943 15.8348 14.8333 16.8946 14.8333 17.9997C14.8333 19.1047 14.3943 20.1646 13.6129 20.946C12.8315 21.7274 11.7717 22.1663 10.6667 22.1663C9.5616 22.1663 8.50179 21.7274 7.72039 20.946C6.93899 20.1646 6.5 19.1047 6.5 17.9997C6.5 16.8946 6.93899 15.8348 7.72039 15.0534C8.50179 14.272 9.5616 13.833 10.6667 13.833ZM32.3333 13.833C33.4384 13.833 34.4982 14.272 35.2796 15.0534C36.061 15.8348 36.5 16.8946 36.5 17.9997C36.5 19.1047 36.061 20.1646 35.2796 20.946C34.4982 21.7274 33.4384 22.1663 32.3333 22.1663C31.2283 22.1663 30.1685 21.7274 29.3871 20.946C28.6057 20.1646 28.1667 19.1047 28.1667 17.9997C28.1667 16.8946 28.6057 15.8348 29.3871 15.0534C30.1685 14.272 31.2283 13.833 32.3333 13.833ZM10.6667 17.1663C10.4457 17.1663 10.2337 17.2541 10.0774 17.4104C9.92113 17.5667 9.83333 17.7787 9.83333 17.9997C9.83333 18.2207 9.92113 18.4327 10.0774 18.5889C10.2337 18.7452 10.4457 18.833 10.6667 18.833C10.8877 18.833 11.0996 18.7452 11.2559 18.5889C11.4122 18.4327 11.5 18.2207 11.5 17.9997C11.5 17.7787 11.4122 17.5667 11.2559 17.4104C11.0996 17.2541 10.8877 17.1663 10.6667 17.1663ZM32.3333 17.1663C32.1123 17.1663 31.9004 17.2541 31.7441 17.4104C31.5878 17.5667 31.5 17.7787 31.5 17.9997C31.5 18.2207 31.5878 18.4327 31.7441 18.5889C31.9004 18.7452 32.1123 18.833 32.3333 18.833C32.5543 18.833 32.7663 18.7452 32.9226 18.5889C33.0789 18.4327 33.1667 18.2207 33.1667 17.9997C33.1667 17.7787 33.0789 17.5667 32.9226 17.4104C32.7663 17.2541 32.5543 17.1663 32.3333 17.1663ZM21.5 3.83301C23.2681 3.83301 24.9638 4.53539 26.214 5.78563C27.4643 7.03587 28.1667 8.73156 28.1667 10.4997C28.1667 12.2678 27.4643 13.9635 26.214 15.2137C24.9638 16.464 23.2681 17.1663 21.5 17.1663C19.7319 17.1663 18.0362 16.464 16.786 15.2137C15.5357 13.9635 14.8333 12.2678 14.8333 10.4997C14.8333 8.73156 15.5357 7.03587 16.786 5.78563C18.0362 4.53539 19.7319 3.83301 21.5 3.83301ZM21.5 7.16634C20.6159 7.16634 19.7681 7.51753 19.143 8.14265C18.5179 8.76777 18.1667 9.61562 18.1667 10.4997C18.1667 11.3837 18.5179 12.2316 19.143 12.8567C19.7681 13.4818 20.6159 13.833 21.5 13.833C22.3841 13.833 23.2319 13.4818 23.857 12.8567C24.4821 12.2316 24.8333 11.3837 24.8333 10.4997C24.8333 9.61562 24.4821 8.76777 23.857 8.14265C23.2319 7.51753 22.3841 7.16634 21.5 7.16634Z" fill="#0A828A"/>
</g>
<defs>
<filter id="filter0_d_536_703" x="-2.5" y="0.5" width="48" height="48" filterUnits="userSpaceOnUse" color-interpolation-filters="sRGB">
<feFlood flood-opacity="0" result="BackgroundImageFix"/>
<feColorMatrix in="SourceAlpha" type="matrix" values="0 0 0 0 0 0 0 0 0 0 0 0 0 0 0 0 0 0 127 0" result="hardAlpha"/>
<feOffset dy="4"/>
<feGaussianBlur stdDeviation="2"/>
<feComposite in2="hardAlpha" operator="out"/>
<feColorMatrix type="matrix" values="0 0 0 0 0 0 0 0 0 0 0 0 0 0 0 0 0 0 0.25 0"/>
<feBlend mode="normal" in2="BackgroundImageFix" result="effect1_dropShadow_536_703"/>
<feBlend mode="normal" in="SourceGraphic" in2="effect1_dropShadow_536_703" result="shape"/>
</filter>
</defs>
</svg>
