<?xml version="1.0" encoding="utf-8"?>
<!-- Generator: Adobe Illustrator 23.0.4, SVG Export Plug-In . SVG Version: 6.00 Build 0)  -->
<svg version="1.1" id="Layer_1" xmlns="http://www.w3.org/2000/svg" xmlns:xlink="http://www.w3.org/1999/xlink" x="0px" y="0px"
	 viewBox="0 0 32 32" style="enable-background:new 0 0 32 32;" xml:space="preserve">
<style type="text/css">
	.st0{fill:#008AD0;}
	.st1{fill:#333333;}
</style>
<g>
	<path class="st1" d="M22.968,31.818c-3.438,0-7.907-2.857-13.918-8.868c-6.69-6.69-9.474-11.471-8.759-15.045
		c0.779-3.897,5.188-6.875,5.375-7c0.397-0.264,0.925-0.212,1.262,0.125L14,8.101c0.391,0.391,0.391,1.023,0,1.414l-3.177,3.177
		c0.251,0.501,1.092,1.809,3.884,4.601s4.1,3.633,4.601,3.884L22.485,18c0.391-0.391,1.023-0.391,1.414,0l7.071,7.071
		c0.337,0.337,0.39,0.865,0.125,1.262c-0.125,0.188-3.103,4.596-7,5.375C23.733,31.781,23.357,31.818,22.968,31.818z M6.125,3.053
		c-1.139,0.9-3.412,2.944-3.872,5.244c-0.556,2.78,2.207,7.234,8.212,13.239c6.005,6.004,10.458,8.766,13.239,8.212
		c2.3-0.46,4.344-2.733,5.244-3.872l-5.754-5.754l-2.829,2.829c-0.472,0.471-1.2,0.438-2.165-0.098
		c-1.137-0.632-2.788-2.026-4.906-4.145c-2.119-2.118-3.513-3.769-4.145-4.906c-0.537-0.965-0.569-1.694-0.098-2.165l2.829-2.829
		L6.125,3.053z M19.567,21.281h0.01H19.567z"/>
</g>
<g>
	<path class="st0" d="M5.87,12.146c-0.361,0-0.71-0.196-0.889-0.539C4.176,10.057,4.119,9.165,4.213,8.69
		c0.124-0.617,0.491-1.31,1.093-2.059c0.347-0.429,0.976-0.498,1.406-0.153c0.43,0.346,0.499,0.976,0.153,1.406
		c-0.541,0.673-0.663,1.06-0.69,1.196c0,0,0,0,0,0c0.004,0-0.001,0.485,0.581,1.606c0.254,0.49,0.063,1.094-0.427,1.349
		C6.182,12.11,6.025,12.146,5.87,12.146z"/>
</g>
</svg>
