<svg class="svg-icon" style="width: 1em; height: 1em;vertical-align: middle;fill: currentColor;overflow: hidden;" viewBox="0 0 1024 1024" version="1.1" xmlns="http://www.w3.org/2000/svg"><path d="M847.934694 909.061224H176.065306c-33.959184 0-61.126531-27.167347-61.12653-61.12653V176.065306C114.938776 142.106122 142.106122 114.938776 176.065306 114.938776h671.869388c33.959184 0 61.126531 27.167347 61.12653 61.12653v671.869388c0 33.436735-27.167347 61.126531-61.12653 61.12653z" fill="#278DCA" /><path d="M512 780.016327c-13.061224 0-23.510204-10.44898-23.510204-23.510205V267.493878c0-13.061224 10.44898-23.510204 23.510204-23.510205s23.510204 10.44898 23.510204 23.510205v489.534693c0 12.538776-10.44898 22.987755-23.510204 22.987756z" fill="#7BD4EF" /><path d="M643.657143 771.657143h-44.930612c-27.167347 0-49.632653-21.942857-49.632653-49.632653 0-7.836735-6.269388-14.106122-14.106123-14.106123h-47.020408c-7.836735 0-14.106122 6.269388-14.106123 14.106123 0 27.167347-21.942857 49.632653-49.632653 49.632653h-44.930612c-33.959184 0-61.126531-27.167347-61.12653-61.126531v-47.020408c0-33.959184 27.167347-61.126531 61.12653-61.126531H642.612245c33.959184 0 61.126531 27.167347 61.126531 61.126531v47.020408c1.044898 33.436735-26.122449 61.126531-60.081633 61.126531z m-155.167347-110.759184h47.020408c33.959184 0 61.126531 27.167347 61.126531 61.126531 0 1.044898 1.044898 2.089796 2.089796 2.089796h44.930612c7.836735 0 14.106122-6.269388 14.106122-14.106123v-47.020408c0-7.836735-6.269388-14.106122-14.106122-14.106122H380.342857c-7.836735 0-14.106122 6.269388-14.106122 14.106122v47.020408c0 7.836735 6.269388 14.106122 14.106122 14.106123h44.930612c1.044898 0 2.089796-1.044898 2.089796-2.089796 0-33.436735 27.167347-61.126531 61.126531-61.126531zM681.273469 352.130612H342.726531c-13.061224 0-23.510204-10.44898-23.510204-23.510204s10.44898-23.510204 23.510204-23.510204h338.546938c13.061224 0 23.510204 10.44898 23.510204 23.510204s-10.44898 23.510204-23.510204 23.510204zM709.485714 455.57551H314.514286c-13.061224 0-23.510204-10.44898-23.510204-23.510204s10.44898-23.510204 23.510204-23.510204h394.971428c13.061224 0 23.510204 10.44898 23.510204 23.510204s-10.44898 23.510204-23.510204 23.510204zM681.273469 559.020408H342.726531c-13.061224 0-23.510204-10.44898-23.510204-23.510204s10.44898-23.510204 23.510204-23.510204h338.546938c13.061224 0 23.510204 10.44898 23.510204 23.510204s-10.44898 23.510204-23.510204 23.510204z" fill="#D2F4FF" /></svg>